<svg width="103" height="143" viewBox="0 0 103 143" fill="none" xmlns="http://www.w3.org/2000/svg">
<path d="M51.071 0C37.5816 0.178515 24.695 5.61651 15.1557 15.1557C5.6165 24.695 0.178515 37.5816 0 51.071C0 91.0851 45.4532 139.373 47.3683 141.41C47.8454 141.913 48.4197 142.313 49.0562 142.586C49.6928 142.859 50.3783 143 51.071 143C51.7637 143 52.4492 142.859 53.0857 142.586C53.7222 142.313 54.2965 141.913 54.7736 141.41C56.6888 139.373 102.142 91.0851 102.142 51.071C101.963 37.5816 96.5254 24.695 86.9862 15.1557C77.447 5.61651 64.5603 0.178515 51.071 0ZM51.071 71.4994C47.0306 71.4994 43.081 70.3013 39.7216 68.0566C36.3621 65.8119 33.7438 62.6214 32.1976 58.8886C30.6514 55.1558 30.2469 51.0483 31.0351 47.0856C31.8233 43.1229 33.769 39.4829 36.6259 36.6259C39.4829 33.769 43.1229 31.8233 47.0856 31.0351C51.0483 30.2469 55.1558 30.6514 58.8886 32.1976C62.6214 33.7438 65.8118 36.3621 68.0565 39.7216C70.3012 43.081 71.4994 47.0306 71.4994 51.071C71.4994 56.4889 69.3471 61.685 65.516 65.516C61.6849 69.3471 56.4889 71.4994 51.071 71.4994Z" fill="#D3D3D3"/>
</svg>
