<svg width="30" height="50" viewBox="0 0 30 50" fill="none" xmlns="http://www.w3.org/2000/svg">
<g clip-path="url(#clip0_105_382)">
<path d="M15.0465 0.111694C6.76215 0.111694 0.0463867 6.85362 0.0463867 15.1703C0.0463867 27.7456 14.993 50.1137 15.0465 50.1117C15.1103 50.1093 30.0464 27.5468 30.0464 15.1703C30.0464 6.85362 23.3308 0.111694 15.0465 0.111694ZM15.1243 27.7404C8.19508 27.7404 2.57799 22.1015 2.57799 15.1452C2.57799 8.189 8.19488 2.55005 15.1243 2.55005C22.0533 2.55005 27.6702 8.189 27.6702 15.1452C27.67 22.1013 22.0533 27.7404 15.1243 27.7404Z" fill="#D3D3D3"/>
<path d="M17.2508 8.99997C18.128 8.99997 18.839 8.28795 18.839 7.40965C18.839 6.53135 18.128 5.81934 17.2508 5.81934C16.3737 5.81934 15.6626 6.53135 15.6626 7.40965C15.6626 8.28795 16.3737 8.99997 17.2508 8.99997Z" fill="#D3D3D3"/>
<path d="M21.2325 12.7401C21.103 12.0063 19.3938 12.4642 18.6963 12.4934L17.7314 10.1011C17.4997 9.52644 16.6401 9.12921 16.0525 9.3304L12.6983 10.4808C12.5295 10.5197 12.3744 10.6197 12.2696 10.7745L10.9494 12.7211C10.3235 13.6193 11.5324 14.2541 12.0501 13.4909L13.2144 11.7211L14.487 11.4727L13.0847 14.3013C13.0016 14.4608 12.9397 14.6727 12.8982 14.9055L11.8484 18.6701L9.59603 18.6656C9.59544 18.6656 9.59485 18.6656 9.59406 18.6656C9.13064 18.6656 8.75465 19.0409 8.75366 19.5051C8.75268 19.9703 9.12807 20.3474 9.59228 20.3486L12.4729 20.3547C12.4737 20.3547 12.4741 20.3547 12.4748 20.3547C12.8106 20.3547 13.1005 20.1575 13.2351 19.8723C13.257 19.8282 13.2756 19.7818 13.2898 19.7326L14.2839 16.3239L16.1652 18.6201L16.4408 22.0705C16.4763 22.511 16.844 22.8448 17.278 22.8448C17.3003 22.8448 17.3232 22.8434 17.3459 22.8419C17.8089 22.8047 18.1539 22.399 18.1168 21.9357L17.8192 18.2197C17.8034 18.0241 17.7221 17.8496 17.5979 17.716L15.6539 15.0195L17.022 12.164L17.5612 13.4838C17.6487 13.7879 17.9285 13.9976 18.2431 13.9976C18.79 13.9976 19.376 13.8462 19.9115 13.7452C20.5263 13.629 21.3207 13.461 21.2325 12.7401Z" fill="#D3D3D3"/>
</g>
<defs>
<clipPath id="clip0_105_382">
<rect width="30" height="50" fill="white"/>
</clipPath>
</defs>
</svg>
