<svg xmlns="http://www.w3.org/2000/svg" version="1.1" xmlns:xlink="http://www.w3.org/1999/xlink" width="512" height="512" x="0" y="0" viewBox="0 0 24 24" style="enable-background:new 0 0 512 512" xml:space="preserve" class=""><g transform="matrix(1.2100000000000015,0,0,1.2100000000000015,-2.624999899864214,-2.519789865016957)"><linearGradient id="a" x1="12.5" x2="12.5" y1="2.328" y2="21.672" gradientUnits="userSpaceOnUse"><stop stop-opacity="1" stop-color="#636363" offset="0"></stop><stop stop-opacity="1" stop-color="#636363" offset="1"></stop></linearGradient><path fill="url(#a)" fill-rule="evenodd" d="M10.06 3.768a1.5 1.5 0 0 0-2.12 0l-.172.171a1.5 1.5 0 0 0 0 2.122L13.708 12l-5.94 5.94a1.5 1.5 0 0 0 0 2.12l.171.172a1.5 1.5 0 0 0 2.122 0l6.997-6.997.174-.174a1.5 1.5 0 0 0 0-2.121zM7.233 3.06a2.5 2.5 0 0 1 3.536 0l7.171 7.171a2.5 2.5 0 0 1 0 3.536l-.171.171-.003.004-6.997 6.996a2.5 2.5 0 0 1-3.536 0l-.171-.171a2.5 2.5 0 0 1 0-3.536L12.293 12 7.06 6.768a2.5 2.5 0 0 1 0-3.536z" clip-rule="evenodd" opacity="1" data-original="url(#a)" class=""></path></g></svg>