<?xml version="1.0" standalone="no"?>
<!DOCTYPE svg PUBLIC "-//W3C//DTD SVG 20010904//EN"
 "http://www.w3.org/TR/2001/REC-SVG-20010904/DTD/svg10.dtd">
<svg version="1.0" xmlns="http://www.w3.org/2000/svg"
 width="409.000000pt" height="409.000000pt" viewBox="0 0 409.000000 409.000000"
 preserveAspectRatio="xMidYMid meet">
<metadata>
Created by potrace 1.14, written by Peter Selinger 2001-2017
</metadata>
<g transform="translate(0.000000,409.000000) scale(0.100000,-0.100000)"
fill="#000000" stroke="none">
<path d="M3100 4083 c-14 -3 -57 -20 -97 -39 -214 -102 -314 -350 -229 -571
54 -142 178 -249 327 -282 61 -14 185 -6 244 14 244 87 367 354 275 598 -41
109 -158 221 -273 264 -41 14 -196 25 -247 16z"/>
<path d="M1547 3662 c-55 -25 -601 -563 -628 -619 -50 -103 -10 -218 95 -273
39 -20 133 -18 176 5 28 14 322 295 461 440 l29 30 97 -51 c54 -29 133 -70
176 -92 43 -23 78 -44 78 -47 1 -6 -49 -84 -267 -415 -55 -85 -108 -169 -117
-185 -52 -103 -68 -269 -37 -391 24 -93 47 -136 130 -244 36 -46 74 -96 85
-111 11 -15 101 -130 200 -255 99 -125 188 -241 199 -256 l19 -29 -41 -87
c-22 -48 -54 -116 -70 -152 -60 -131 -211 -457 -243 -525 -77 -164 -34 -314
107 -377 96 -42 225 -12 288 68 16 20 52 88 81 152 29 65 66 146 83 182 17 36
65 142 107 235 43 94 91 199 107 235 116 252 112 242 112 310 0 65 -8 88 -61
180 -11 19 -48 89 -83 155 -35 66 -101 190 -147 275 -46 85 -83 160 -83 165 0
17 24 65 33 65 4 0 7 4 7 10 0 8 204 371 247 439 l16 25 20 -40 c12 -21 49
-97 84 -169 34 -71 74 -145 89 -164 33 -41 90 -67 169 -76 33 -4 69 -9 80 -10
33 -4 117 -15 160 -21 22 -2 74 -9 115 -15 41 -5 89 -12 105 -14 267 -36 293
-37 345 -14 153 69 161 269 14 360 -29 17 -79 27 -304 55 -25 3 -56 7 -69 9
-56 9 -109 17 -137 20 -95 9 -163 18 -171 24 -5 3 -17 26 -27 51 -10 25 -22
54 -27 65 -40 95 -112 274 -117 290 -12 41 -74 137 -115 176 -111 108 -496
333 -779 455 -201 87 -459 174 -513 174 -22 0 -57 -8 -78 -18z"/>
<path d="M1189 1839 c-74 -100 -141 -190 -149 -201 -15 -19 -18 -19 -175 18
-88 20 -207 47 -265 60 -57 14 -114 26 -125 28 -11 2 -40 9 -64 14 -136 32
-270 -39 -306 -161 -21 -70 -19 -114 9 -173 45 -97 93 -127 249 -159 20 -4
294 -67 412 -95 44 -10 123 -28 175 -40 52 -11 111 -24 130 -29 42 -9 126 8
167 34 15 10 108 98 206 196 210 211 206 201 119 311 -106 134 -136 186 -177
308 -19 55 -26 65 -47 68 -23 3 -42 -19 -159 -179z"/>
</g>
</svg>
