<svg xmlns="http://www.w3.org/2000/svg" version="1.1" xmlns:xlink="http://www.w3.org/1999/xlink" width="512" height="512" x="0" y="0" viewBox="0 0 511.999 511.999" style="enable-background:new 0 0 512 512" xml:space="preserve" class=""><g transform="matrix(-1.7634913907721892e-16,0.9600000000000002,-0.9600000000000002,-1.7634913907721892e-16,501.75905502248713,10.239962481716617)"><path d="M399.436 191.249 262.903 3.516A8.521 8.521 0 0 0 255.999 0a8.514 8.514 0 0 0-6.895 3.516L112.571 191.249a8.516 8.516 0 0 0-1.638 5.018c0 1.323.316 2.645.939 3.874a8.514 8.514 0 0 0 7.595 4.659H204.8v93.867a8.53 8.53 0 0 0 8.533 8.533h85.333a8.525 8.525 0 0 0 8.533-8.533V204.8h85.333c3.209 0 6.153-1.8 7.603-4.659a8.533 8.533 0 0 0-.699-8.892zM281.603 324.266h-51.2c-14.114 0-25.6 11.486-25.6 25.6s11.486 25.6 25.6 25.6h51.2c14.114 0 25.6-11.486 25.6-25.6s-11.486-25.6-25.6-25.6zM281.603 392.532h-51.2c-14.114 0-25.6 11.486-25.6 25.6s11.486 25.6 25.6 25.6h51.2c14.114 0 25.6-11.486 25.6-25.6s-11.486-25.6-25.6-25.6zM281.603 460.799h-51.2c-14.114 0-25.6 11.486-25.6 25.6s11.486 25.6 25.6 25.6h51.2c14.114 0 25.6-11.486 25.6-25.6s-11.486-25.6-25.6-25.6z" fill="#000000" opacity="1" data-original="#000000" class=""></path></g></svg>