<svg xmlns="http://www.w3.org/2000/svg" version="1.1" xmlns:xlink="http://www.w3.org/1999/xlink" width="512" height="512" x="0" y="0" viewBox="0 0 512 512" style="enable-background:new 0 0 512 512" xml:space="preserve" class=""><g><path fill-rule="evenodd" d="M214.302 154.881H436.86l-29.272 318.707c-1.382 15.003-14.126 26.405-29.515 26.405H159.985c-15.389 0-28.134-11.402-29.514-26.405l-26.555-289.129zM91.524 104.837c-15.294 4.098-28.708 16.666-25.402 29.005l9.97 37.207c.577 2.153 2.561 3.616 5.202 2.908l361.88-96.965c2.644-.708 3.628-2.968 3.051-5.119l-9.97-37.207c-3.336-12.448-21.208-16.515-36.501-12.418l-94.589 25.345-5.756-21.482c-2.701-10.079-13.216-16.161-23.298-13.46l-82.319 22.058C183.705 37.423 177.651 47.915 180.353 58l5.759 21.494zm110.023-29.481-5.756-21.483a3.05 3.05 0 0 1 2.148-3.735l82.298-22.052a3.023 3.023 0 0 1 3.735 2.148l5.759 21.493zm-41.708 148.18 16.338 177.878h33.202l-16.337-177.878zm125.952 0h-33.063l-.449 177.878h33.064zm86.501 0h-33.203l-16.337 177.878h33.202z" clip-rule="evenodd" fill="#d3d3d3" opacity="1" data-original="#000000" class=""></path></g></svg>