<svg width="100" height="105" viewBox="0 0 100 105" fill="none" xmlns="http://www.w3.org/2000/svg">
<path d="M98.9656 36.1479C97.1527 32.8845 93.0374 31.7086 89.774 33.5217L79.0494 39.4798L71.9801 28.6681C71.7709 28.6755 71.5622 28.6841 71.3513 28.6841C64.2308 28.6841 58.0981 24.3873 55.4005 18.2522L33.122 18.2507C31.9123 18.2507 30.7248 18.5754 29.6833 19.1908C28.6419 19.8062 27.7846 20.6898 27.201 21.7494L18.639 37.2964C16.8382 40.5666 18.0291 44.6774 21.299 46.4781C22.2955 47.0289 23.4153 47.3179 24.5538 47.3179C26.9379 47.3179 29.2495 46.054 30.4808 43.8181L37.1161 31.7697H49.8823L30.3912 65.7929H6.75959C3.02655 65.7929 0 68.8192 0 72.5524C0 76.2855 3.02634 79.312 6.75959 79.312H34.2485C35.4235 79.3121 36.5782 79.0058 37.5987 78.4235C38.6193 77.8411 39.4703 77.0028 40.068 75.9912L44.9237 67.7741L57.1825 77.4327L49.8326 95.7177C48.4404 99.1815 50.1196 103.118 53.5833 104.51C54.3839 104.833 55.239 105 56.1023 105C58.7808 105 61.3162 103.397 62.3763 100.76L71.6142 77.777C72.7336 74.9927 71.8831 71.8037 69.5259 69.9465L55.9335 59.2373L65.3313 43.203L71.1762 52.1424C72.467 54.1161 74.6254 55.2036 76.8388 55.2036C77.9861 55.2036 79.1144 54.9105 80.1166 54.3521L96.3395 45.3393C99.6027 43.5267 100.779 39.4113 98.9656 36.1479Z" fill="#D3D3D3"/>
<path d="M71.3509 22.532C77.573 22.532 82.6169 17.488 82.6169 11.266C82.6169 5.04395 77.573 0 71.3509 0C65.1289 0 60.085 5.04395 60.085 11.266C60.085 17.488 65.1289 22.532 71.3509 22.532Z" fill="#D3D3D3"/>
</svg>
