<svg width="30" height="50" viewBox="0 0 30 50" fill="none" xmlns="http://www.w3.org/2000/svg">
<g clip-path="url(#clip0_105_399)">
<path d="M15 0C6.7158 0 0 6.74192 0 15.0586C0 27.6339 14.9467 50.002 15 50C15.0638 49.9976 30 27.4351 30 15.0586C30 6.74192 23.2846 0 15 0ZM15.0778 27.6287C8.14855 27.6287 2.53142 21.9898 2.53142 15.0335C2.53142 8.0773 8.14855 2.43836 15.0778 2.43836C22.0069 2.43836 27.6238 8.0773 27.6238 15.0335C27.6236 21.9896 22.0069 27.6287 15.0778 27.6287Z" fill="#D3D3D3"/>
<path d="M24.0003 15.0002C23.9999 14.9999 23.9999 14.9999 24.0003 15.0002V15.0002Z" fill="#D3D3D3"/>
<path d="M25.6711 15.9932C25.0347 14.4657 23.5797 13.4525 22.0096 13.4525C21.7373 13.4525 21.469 13.4813 21.2066 13.5381L19.6162 8.313C19.5631 8.12666 19.3956 7.99672 19.2125 8.00006H17.1765C16.9479 8.00006 16.7625 8.1981 16.7625 8.4421C16.7625 8.68631 16.9479 8.88436 17.1765 8.88436H18.9191L19.5469 10.9473H12.3544L12.0567 10.461H12.8129C13.3485 10.461 13.3485 9.57687 12.8129 9.57687H10.383C9.84747 9.57687 9.84747 10.461 10.383 10.461H11.0678L11.4487 11.0835C11.3867 11.1526 11.3453 11.2429 11.3356 11.3434L10.7268 13.5216C10.4901 13.4757 10.2491 13.4525 10.0049 13.4525C7.82106 13.4527 6 15.3959 6 17.726C6 18.303 6.1059 18.8625 6.31457 19.3899C6.93549 20.9559 8.41066 22 10.0047 22C11.5963 22 13.0742 20.9546 13.6943 19.3899C13.8619 18.9667 13.9635 18.5226 13.9968 18.0651H15.9339C16.1062 18.0651 16.2542 17.9527 16.3166 17.7927L19.8881 12.0676L20.4166 13.8041C19.9535 14.0186 19.5369 14.3213 19.1783 14.7042C16.9142 17.1202 18.2091 21.4048 21.3701 21.9455C22.875 22.2031 24.4191 21.5059 25.2931 20.1742C26.1096 18.9289 26.1953 17.3776 25.6711 15.9932ZM11.2829 14.6234C12.2493 15.0792 12.9648 16.0341 13.1394 17.1808H10.568L11.2829 14.6234ZM10.0045 21.1155C8.25308 21.1155 6.82822 19.5953 6.82822 17.7258C6.82822 15.8572 8.25289 14.3363 10.0045 14.3363C10.1687 14.3363 10.33 14.3497 10.4876 14.3756L9.60885 17.5186C9.48729 17.9535 9.8596 18.064 10.136 18.0647H13.1646C13.0049 19.7754 11.6484 21.1155 10.0045 21.1155ZM13.9768 17.1808C13.9312 16.796 13.8365 16.4218 13.6942 16.0623C13.4923 15.5532 13.204 15.0963 12.8362 14.7042C12.4686 14.3117 12.0405 14.0036 11.5636 13.7886C11.5501 13.7821 11.5358 13.7759 11.5219 13.7698L12.0144 12.0083L15.1779 17.1806L13.9768 17.1808ZM15.9371 16.8052L12.8951 11.8316H19.0399L15.9371 16.8052ZM22.0096 21.1155C20.2584 21.1155 18.8336 19.5953 18.8336 17.7258C18.8336 16.3656 19.588 15.1906 20.6738 14.6512L21.6154 17.7446C21.7751 18.2688 22.5849 18.068 22.4035 17.4714L21.4645 14.3863C21.6416 14.3535 21.8237 14.3363 22.0092 14.3363C23.7381 14.3363 25.1853 15.8812 25.1853 17.7258C25.1855 19.5711 23.7385 21.1155 22.0096 21.1155Z" fill="#D3D3D3"/>
</g>
<defs>
<clipPath id="clip0_105_399">
<rect width="30" height="50" fill="white"/>
</clipPath>
</defs>
</svg>
